<svg xmlns="http://www.w3.org/2000/svg" width="600" height="400" viewBox="0 0 600 400">
  <rect width="600" height="400" rx="10" fill="#f9fafb" stroke="#e2e8f0" stroke-width="2" />
  <rect x="20" y="20" width="560" height="300" rx="8" fill="white" stroke="#e2e8f0" stroke-width="2" />
  
  <!-- Тепловая карта -->
  <circle cx="180" cy="120" r="40" fill="rgba(255, 0, 0, 0.2)" />
  <circle cx="180" cy="120" r="25" fill="rgba(255, 0, 0, 0.4)" />
  <circle cx="180" cy="120" r="15" fill="rgba(255, 0, 0, 0.6)" />
  
  <circle cx="320" cy="100" r="35" fill="rgba(255, 0, 0, 0.2)" />
  <circle cx="320" cy="100" r="20" fill="rgba(255, 0, 0, 0.4)" />
  <circle cx="320" cy="100" r="10" fill="rgba(255, 0, 0, 0.6)" />
  
  <circle cx="450" cy="150" r="45" fill="rgba(255, 0, 0, 0.2)" />
  <circle cx="450" cy="150" r="30" fill="rgba(255, 0, 0, 0.4)" />
  <circle cx="450" cy="150" r="15" fill="rgba(255, 0, 0, 0.6)" />
  
  <!-- Воронка -->
  <path d="M100 200 L500 200 L400 300 L200 300 Z" fill="#5a67d8" fill-opacity="0.1" stroke="#5a67d8" stroke-width="2" />
  <path d="M150 220 L450 220 L380 280 L220 280 Z" fill="#5a67d8" fill-opacity="0.2" stroke="#5a67d8" stroke-width="1" />
  <path d="M200 240 L400 240 L360 260 L240 260 Z" fill="#5a67d8" fill-opacity="0.4" stroke="#5a67d8" stroke-width="1" />
  
  <!-- Графики -->
  <line x1="20" y1="350" x2="580" y2="350" stroke="#4a5568" stroke-width="1" />
  <polyline points="30,330 80,310 130,340 180,300 230,320 280,290 330,310 380,280 430,300 480,270 530,290 580,260" fill="none" stroke="#5a67d8" stroke-width="2" />
  <polyline points="30,340 80,330 130,350 180,320 230,330 280,310 330,330 380,300 430,320 480,290 530,310 580,280" fill="none" stroke="#f97316" stroke-width="2" />
  
  <text x="300" y="380" text-anchor="middle" font-family="Arial, sans-serif" font-size="16" fill="#4a5568">ВебАнализ - аналитика поведения пользователей</text>
</svg> 